<svg version="1.0" xmlns="http://www.w3.org/2000/svg" width="2512" height="1826.667" viewBox="0 0 1884 1370"><path d="M425.7 3.6c-4.2.8-10.5 2.3-13.9 3.5-8.5 2.8-34.4 14.6-51.8 23.6l-14.5 7.4-14.5.9c-29.8 1.8-54.7 10.1-67.6 22.4-5.4 5.2-13.6 19.1-15.9 27l-1.2 3.9-8.4 1.7c-27 5.6-57.3 20.1-63.3 30.2-4.8 8.2-4.5 18.4 1 32.7 1.4 3.5 2.2 6.6 2 6.9-.3.3-8.7-.1-18.6-.8-28.1-2-41.3-.4-61 7.6-9.4 3.8-20.6 10.9-24.6 15.7-1.4 1.7-4.8 7.5-7.5 12.9-5.1 10.1-16.9 39.6-16.9 42.1 0 3.7-2.3 7.5-4.8 8.2-7.6 1.8-19.6 11.9-28.1 23.5-13.5 18.3-17.5 36.7-11.2 52.4 6.3 15.6 17.1 28.5 31 36.5 22.1 12.9 36.6 15.6 54.7 10 8.3-2.6 28.3-13.6 42.8-23.6 19.8-13.7 31.6-24 67.1-58.4 8.8-8.5 18.3-17 20.9-18.9 3.8-2.6 19.4-10 21.1-10 .1 0 .6 1.7 1 3.7 1.1 5.8 6.1 14.9 9.7 17.5 3.8 2.6 9.2 2.9 17.3 1 11-2.7 9.9-3 11.4 3 1.2 4.5 2 12.8 2.1 21.4 0 2.6 4.2 7 7.4 7.8 1.3.3 4.9 2.2 8.2 4.1 3.2 2 8.3 4.3 11.2 5.1 7.6 2.3 13.7.1 21.5-7.7l5.8-5.8 1 2.7c.6 1.5 3 11.6 5.5 22.6 4.4 20 5.9 23.9 11.1 28.8 5.4 5.2 16.1 7.5 21.6 4.7 4-2.1 12.6-10 15.9-14.5 1.7-2.4 3.4-4.4 3.8-4.4 1 0 8.6 23.8 10.6 32.8 2 9.2 8 18.7 14 21.9 10.9 6 20.5 3.2 29.2-8.5 2.8-3.8 5.6-8.1 6.3-9.5.7-1.5 1.5-2.7 1.9-2.7.3 0 1.7 3.3 2.9 7.2 4.8 14.9 14.7 30 22.2 33.9 5.7 2.9 22.2 6.1 31.5 6.2 11.4 0 16-3 17.3-11.3.6-3.2 1-3.5 5.6-4.6 2.8-.6 7.8-1.4 11.1-1.7l6.2-.6 1.3 3c2.3 5.7 13.2 21.3 19.1 27.5l5.8 6.1-9.8 6.3c-6.5 4.3-13.1 9.9-20.1 16.9-28.9 29.6-27.1 27.2-29.1 37.6-3.2 17-9.5 31.2-23.9 54.2-11.5 18.3-14.5 24.9-14.3 31.3.1 3 .5 6.8 1 8.4.8 2.8.2 3.6-9.8 13.5-5.8 5.8-12.9 14.2-15.9 18.6-3 4.4-5.7 8.4-6.1 8.8-.4.5-3.4.1-6.6-.7-3.3-.8-10.6-2-16.4-2.6-5.8-.6-13.9-1.8-18-2.6s-11.3-1.9-15.9-2.5c-4.7-.5-17.7-3.2-29-6-11.3-2.7-29.1-6.8-39.6-9-10.4-2.2-21.8-4.6-25.2-5.4-11.7-2.8-20.8-1.4-22.6 3.5-1 2.7-1.4 2.9-5.2 2.4-3.8-.5-4.2-.3-8.8 5-7.7 8.9-9.7 16.1-5.7 20.4 1.9 2 3.1 2.2 11.9 2.2 14.8 0 18.8.7 19.6 3.7.3 1.3 1.6 2.8 2.8 3.3 1.2.5 9.3 1.4 18 2 20.4 1.4 35.8 3.5 93.2 13 6.6 1.1 16.1 2.5 21 3.1 9.5 1.1 22 3.6 33.8 6.9 4 1.1 8.3 2 9.8 2 4.7 0 38.2-34.5 51.4-52.8 2.1-3 4.8-5.8 6.1-6.2 4.2-1.6 5-4.7 6.8-25 2.6-29 5.8-42.4 13.3-55.9 5.9-10.8 20.8-32.2 26-37.5 5.6-5.7 21.4-17.2 29.7-21.5l5.7-3.1 3.5 2.8c1.9 1.5 3.4 3.1 3.4 3.5 0 1.6-3.9 8.3-6.3 10.9-1.4 1.5-7.2 5.7-12.8 9.4-5.6 3.6-12.9 9.1-16.2 12.3-10.8 10.2-20.2 27.1-22.7 41.1-2.6 14 1 34.6 9.6 55.2 2.5 6.2 8.4 20.4 13 31.5 4.6 11.1 9 21.6 9.9 23.2 2.4 4.8 1.8 9.5-3.1 21.9-2.5 6.4-5.5 14.4-6.6 17.7-1.1 3.3-4.4 10.7-7.4 16.4-3 5.7-5.4 11-5.4 11.8 0 .8.7 3 1.6 4.9l1.6 3.4-8.9 9.7c-4.8 5.4-12 13.4-15.8 17.8-12 13.9-63.7 64.9-70.8 69.9-8.1 5.7-9.3 7.6-7.8 11.8.6 1.7 1 3.3.8 3.4-.1.2-9.3 3.3-20.2 7-28.9 9.6-30 10-41.5 15.7-11.4 5.7-15 9-13.1 12.5 3.3 6.2 40.6 9.7 61.8 5.8 12-2.1 20.7-4.8 31.6-9.7 8.2-3.7 9-3.8 11-2.4 3.6 2.5 6.9 1.8 13.9-3.3 3.7-2.6 9.3-6.5 12.5-8.7 10.6-7.4 19-17.1 30.6-35.8 12.4-19.9 32.9-45.3 46.1-57 4.9-4.5 8.8-9 11-13 6.7-12 17.1-51.8 21.2-81.2 1.1-8.2 2.2-12.6 3.4-14 3.5-4 6-10.4 6-15.4 0-12.7-4-22.1-17.1-40.1-17.3-23.9-25.9-37.7-25.9-41.7 0-1.1 2.4-4.6 5.4-7.9 5.2-5.7 5.5-5.9 10.4-5.9 4.8 0 5.3-.3 11.4-6.1 7.9-7.6 23.5-17.8 34.8-22.8l8.6-3.7 5.7 3.3c3.2 1.8 10.6 6.8 16.5 11.1 11.1 8.1 24.5 16.8 32 20.6l4.3 2.2-13.3 8.7c-7.3 4.8-15.4 10-18 11.5-5.4 3.1-7.1 5.6-6.6 9.8.2 2.4-.9 4.1-7.3 10.6-11.7 12.1-16.3 18-23 29.9-12 21.4-17.3 37.8-20.5 63.9-1.5 11.6-1.5 14.7-.5 19.8 1.3 6.2 7.7 21.4 11.7 27.8 1.2 1.9 4.3 7.8 6.9 13 2.6 5.2 6 11.2 7.5 13.4 1.5 2.2 5.5 9.4 8.9 16 3.4 6.6 8.9 15.3 12.1 19.4 4.7 5.8 6.1 8.5 7 13 1.2 5.6 5.7 25 10.6 45 5 20.1 15.2 42.8 20.8 46.2 4.2 2.4 3.7 1.8 12.7 15.7 9.9 15.2 26.5 32.4 39.1 40.5 4.6 3 11.9 8 16.3 11.2 13.9 10 19.2 11.6 23.2 7.3 3-3.4 3.5-6 1.8-10.1-1.9-4.5-1.9-5.7-.1-5.7.7 0 2.5-.9 4-2.1 6.2-4.9 2.1-12.9-17.3-33.6-16.3-17.3-20.6-22.6-28.7-34.8-3.3-5-7.9-11.5-10.2-14.5-2.3-3-4.2-5.8-4.2-6.3 0-.4-2.9-6.9-6.4-14.5-5.9-12.6-10.3-24.8-9.3-25.8.2-.2 2.5 2.8 5.2 6.8 8.8 13.3 34.2 37.5 46.9 44.8 3.2 1.8 7.7 3.8 10 4.5 3.6 1 4.5 1.9 7.5 7.6 9.9 19 16.1 26.9 29.5 37.8 11.3 9.2 39 26.9 53.6 34.1 6.4 3.2 9.8 5.7 13.8 10.1 13.8 15.2 41.4 30.4 62.7 34.5 5.9 1.2 7.6 2 11.5 5.7 3.9 3.8 15.2 11.9 17.9 12.9.6.2.6 2.2 0 5.3-1.3 6.7-7.9 52.6-12.4 85.4-4 29.5-19 106.4-26.1 134.1-2.5 9.6-7 26.3-10 37-7.9 27.9-10.4 39.6-10.4 48.8 0 8.8 1.3 11.6 6.1 12.7 3.3.8 8.5-3.4 12.4-10 5.9-10.1 18.5-50.2 28-89 3.7-14.9 7.7-30.8 9.1-35.5 3-10.7 8.8-35.6 11-47.5 1.9-10.5 7.3-37.7 10.9-55.2 2.2-10.5 10.5-61.5 10.5-64.3 0-1.9 1.9-.9 8.3 4.2 12.6 10.3 29.2 21.7 41.2 28.2 3.9 2.1 11.5 6.4 17 9.4 19.4 10.7 71.9 35.3 83.5 39.1 3.6 1.2 12 4.4 18.5 7.2 13.5 5.8 63.5 25.9 76.5 30.8 61.9 23.4 68.9 25.6 92.4 28.7 6.6.8 12.2 1.7 12.5 1.9.9.5 35.8 6.2 49.1 7.9 18.3 2.5 38.3 3.4 54 2.5 24.9-1.3 33.4-3 59.7-12 40.8-13.8 68.6-32.6 93.6-63.4 12.5-15.4 31.3-49.6 37.7-68.5 1.6-4.8 3.8-10.7 4.9-13.2 1.5-3.6 7.1-25.8 7.1-28.4 0-.3 1.5.5 3.3 1.9 6.9 5.2 12.6 8.5 25.4 14.5 7.3 3.5 17 8.5 21.5 11.2 4.5 2.8 8.7 5 9.3 5 .7 0 4.1.9 7.6 2.1 11.2 3.6 23.9 1.3 30.1-5.5 17-18.4 27.7-67.4 27.8-127.1.1-26.9-1.3-37.1-8.5-63.7-10.8-39.9-18.4-57.5-41.8-96.8-18.2-30.4-28.6-45.1-52.5-74-25.2-30.4-49-52.6-113.2-106-13.5-11.2-24.9-20.7-25.5-21.3-.6-.6 12.9-.7 36.5-.4 38 .6 59.6 2 97 6.6 9.1 1.1 23 2.7 31 3.6 17.7 2 33.2 3.9 46.5 5.9 5.5.8 20.6 2.7 33.5 4.1 12.9 1.4 27.3 2.9 32 3.5 20.3 2.2 25.8 2.4 28.5.6 1.9-1.2 2.5-2.5 2.5-5.1 0-4.3-2.5-7-7.7-8.4-5.8-1.7-28.8-4.8-47.8-6.6-23.9-2.2-40.2-3.9-86-9-22-2.5-43.8-5-48.5-5.5-27.9-3.1-97.7-7-124.8-7h-13.6l-8.5-8.8c-4.7-4.8-13.3-13.7-19.1-19.8-10-10.5-30-28.2-43.9-38.9-10.2-7.8-30.7-19.3-35.7-20.1-3.5-.5-4.7-1.3-6.8-4.4-3.4-5.2-13.4-13.4-20.9-17.1-3.4-1.7-6.3-3.2-6.5-3.4-.1-.1 1.8-2.2 4.3-4.7 6.9-6.9 5.7-13.1-2.6-14.4-3-.5-17.9.3-40.7 2.3l-7.4.6 2.6-2.6c3-3 3.2-4.4.9-7.6-1.5-2.3-2-2.4-10.7-1.8-5 .3-11 1.3-13.4 2.1l-4.3 1.6-9.6-8.1c-5.3-4.5-12.8-10.2-16.7-12.7-3.9-2.5-8.6-5.8-10.5-7.4-5.3-4.6-19.5-13.5-29.9-18.7-12.9-6.5-41.2-17.5-48.9-19.1l-6.2-1.3 5.2-5.7c5.1-5.7 8.8-11.5 17.2-27.5 2.4-4.4 5-9.4 5.9-11 2.1-3.9 2.1-14.5 0-23.8-2.1-8.9-5.3-12.7-11.1-12.7-3.4 0-4.3.6-9.3 6.2-3 3.4-10 10.8-15.5 16.3s-11.7 12.2-13.8 14.8c-4.9 6-5.8 6.4-18.9 9.4l-10.9 2.4-3.7-2.2c-2-1.2-10.1-6.2-17.8-11.1-15.8-9.8-29.4-15.4-40.9-16.7-3.9-.5-9-1.7-11.5-2.8-9.4-4.3-12.7-3.9-20.7 2.2-2.6 2-10.6 6.6-17.7 10.1s-13.5 6.9-14.2 7.5c-1.9 1.6-1.7-.1.4-3.2.9-1.4 4.5-6.7 7.9-11.7 3.3-5 6.9-11.5 7.9-14.4.9-2.9 3.7-7.8 6-10.9 4.5-5.7 4.5-5.8 7.4-23.3 1.9-11.9 4.6-15.3 19.9-25.6 3.6-2.4 8.9-6.7 11.8-9.5 4.5-4.4 5.3-5.6 5.3-8.9 0-4.9-3.9-9-7.8-8.3-30.2 5.7-34.9 8-43 20.8-8.7 13.9-12.5 22.9-16.3 38.4-4 16.1-15.5 36.6-29.6 52.4l-3.9 4.4-12.5-4.1c-6.8-2.3-18.7-5.5-26.4-7.2-7.7-1.7-16.8-4.3-20.1-5.6-5.8-2.4-6.7-2.5-16.5-1.6-8.9.8-11.2.7-16.8-.9-9.3-2.7-20.8-8.5-33.3-16.7-25.2-16.7-57-35.5-71.7-42.4-26.6-12.5-68-27.6-78.1-28.5-4.8-.4-7.6-1.3-10.5-3.3-10.8-7.3-17.5-9.3-42.3-12.1-5.4-.6-14.1-2.8-24.5-6.3-8.9-3-18.9-5.7-22.2-6.1-3.3-.3-15.4-2.1-27-4-11.5-1.9-26.8-4.1-33.9-5-11.3-1.5-14.3-2.3-24-6.5-12.2-5.3-24.3-9-38.1-11.5-10.6-2-16.9-4.3-32.4-11.8-6.2-3-18.5-7.9-27.2-10.9-8.7-2.9-15.8-5.7-15.6-6.3 1.1-3.2 11.7-9.7 25.3-15.5 25.9-11 48-25.2 56.3-36.3 11.8-15.8 14.8-32.1 8.5-45.5-5.3-11-20.9-17.8-52.4-22.7-17.7-2.8-34-3.1-46.3-.9zm636.5 372.8c2.9 1.4 7.3 3.2 9.9 4 2.5.9 8 3.8 12.2 6.5 8.6 5.4 19.8 9.5 30.7 11.2 9.2 1.4 13 .7 21-4 7.6-4.5 17.1-9.4 17.3-8.9 2.7 5.5 3.5 6.4 7.2 7.1 13.1 2.8 17.2 4 25 7.3 5.2 2.3 8.1 4 7.3 4.5-.7.3-5.1 1-9.8 1.3-13.9 1.1-28.8 3.5-41.5 6.7-16 4.1-35.9 10.1-42 12.8l-4.9 2.2-9.8-6.7c-7.8-5.2-11.3-8.5-17.2-15.7-7.4-9.3-11.7-13-21.3-18.3-2.9-1.6-5.3-3.1-5.3-3.4.1-.6 14.1-8.9 15.2-8.9.4-.1 3.1 1 6 2.3zm204.3 200.7c8 1.5 17.9 6.6 27.2 14.2 14.4 11.7 17.4 13.7 20.4 13.7 4.5 0 6.2-3.5 6.2-13 0-4.4.4-8 .8-8 .5 0 11.4.9 24.2 2 24 2.2 39.2 4 48.7 6.1l5.5 1.2-2.5 1.6c-7.6 5-11 10.1-11 16.3 0 6.7 3.9 8 13.5 4.5 2.2-.8 5.2-1.7 6.8-2.1 2.6-.6 2.7-.5 2.7 3.4 0 2.4 1.7 8.7 4 14.7 2.2 5.9 4 11.2 4 11.8 0 .7-.9 2-2.1 3.1-2.9 2.6-3.8 4.5-6 12.5-2.3 8.4-2.4 10.7-.2 13.1 2.5 2.8 7 2.2 12.9-1.7 2.9-1.9 5.6-3.5 6.1-3.5.4 0 7.3 12.9 15.2 28.6l14.4 28.5.3 9c.8 18.9 4.7 27.8 11.9 26.6 2.7-.4 3.3 0 6.3 4.9 1.8 3 4.9 6.6 6.9 8.1 3.2 2.4 4.4 2.8 11.4 2.8 7.3 0 7.9.1 8.9 2.5 4.5 10 20.2 34.1 35.1 54 9.6 12.9 24 32.7 31.9 44 7.9 11.3 20.6 28.5 28.3 38.4 12.5 16 22.3 30.4 21.3 31.3-.2.2-6.8-2.6-14.7-6.3-14.4-6.7-24.4-10.9-54.4-22.9-25-9.9-28.5-11.2-53.5-19.6-28.6-9.6-63.1-16.8-81.5-16.9-3.3 0-6.4-.4-7-.8-.5-.4-1.1-3.2-1.3-6.2-.2-6-2.6-10.3-5.8-10.8-1.2-.2-5.3 2.5-10.6 6.7-9.8 7.8-20.8 15.5-21.3 14.9-3.3-3.2-12.4-17.7-12.9-20.3-.7-3.8-4.4-6.5-8.8-6.5-2.1 0-2.4-.4-2-3.4.3-2.7-.2-4-2.2-6-3-3.1-7-3.3-15.9-1-3.3.8-10.4 1.6-15.6 1.6-8.8.1-11-.3-26.6-5.1-9.3-2.9-18.4-6.1-20.2-7.2-4-2.5-4.2-4.9-1.3-13.5 2.4-7 1.7-10.2-2.6-13-6.6-4.4-17.7-.7-29.9 9.8-6.6 5.6-14.6 9.8-17.4 9.1-1-.2-2.6-1.8-3.6-3.5-1.8-3.1-1.8-6.7.1-16.9.5-3 .2-4.1-1.6-5.9-2-2-2.9-2.2-7.9-1.6-6.8.8-11.9 3.4-18.4 9.2-2.8 2.5-5.1 4.3-5.3 4.1-.2-.1.6-3.3 1.7-7 1.5-5 1.7-7.2.9-8.6-1.9-3.7-4.8-3.5-13.5.8-9.3 4.6-16.2 10.6-19.7 17.2l-2.3 4.4-.6-7.4c-.4-6.1-1-7.7-2.8-9.2-2.7-2.2-3.7-2.3-9.6-.8-5.8 1.5-15.7 11.8-19.9 20.7-3 6.4-4.6 7.8-4.6 4.2 0-3.2-2.5-7.4-5.3-8.9-3.5-1.9-7.5-.7-8.3 2.4-.6 2.6-1.8 3.2-2.9 1.5-.3-.6-1.7-1-3-1-1.7 0-3.6 1.8-7.7 7.5-2.9 4.2-6.3 9-7.6 10.8l-2.3 3.2.5-3.5c.4-1.9 1.3-8.9 2.1-15.5s2.1-15.2 2.9-19.1c2.1-10 5.5-36.9 6.3-49.6l.6-10.7 3.7-.6c3.1-.5 4.7 0 9.8 3 7 4.2 12.7 5.3 17.2 3.5 2.9-1.2 3.4-1.1 7.3 1.9 9.8 7.5 16.3 8.7 23.6 4.6 2.4-1.4 4.5-2.4 4.6-2.3.1.2 1.9 7.4 3.9 16 2.9 12 4.4 16.2 6.2 17.9 2.8 2.6 5.7 2.1 9.7-1.7 3.3-3.1 3.3-3-.6-22.4-3.6-17.7-7.9-34.1-13.6-51.8-4.8-14.9-4.9-15.4-3.5-19.9 1.9-6.3 1.7-14.3-.5-23.8-1.1-4.4-1.8-8.1-1.7-8.3.2-.1 3.1 6 6.6 13.5 9.9 21.7 15.5 33.4 25.5 53.8 5.1 10.4 10 21.5 10.9 24.5 3.2 11 8.3 15.8 13.2 12.5 6.6-4.3 3.3-15.8-16.8-60-6.3-13.8-7.1-15.7-13.3-32-5.9-15.4-25.9-53.5-31.3-59.8-1.4-1.6-1.4-1.9.1-3.4 1.4-1.5 2.2-1.3 9 2 8.3 4.2 9.3 4.3 12.5 2.1 2.6-1.8 3-6.9.6-10.2-1.4-2.1-1.1-6.7.5-6 .4.2 5.1 2.5 10.5 5.2 11.9 5.8 16.5 6.7 19.5 3.7 2.6-2.6 2.6-5.3.1-11-1.1-2.4-1.9-4.6-1.6-4.8.2-.2 5.3 1.7 11.2 4.3 22.9 9.8 29.2 10.7 31.5 4.8 1.3-3.7-.5-6.5-7.4-10.9l-6.2-4 3.9-.3c2.2-.2 8.1.4 13.1 1.2 5.1.9 10.7 1.6 12.5 1.6 6.3 0 9-5.4 5-9.8l-2.1-2.2h2.4c1.3 0 5 .5 8.2 1.1zM784 608.9c0 1.8-19.5 19.2-27.3 24.4-10.2 6.9-11.4 10.6-5.5 18l3 3.9-3.5 7.6c-6.7 14.5-11.6 27-14.2 35.8-3.3 11.2-9.5 42.4-9.5 47.6 0 3.9-2.9 28-3.4 28.6-.4.3-6.1-9.2-11.1-18.3-2.1-3.9-8.1-12.9-13.2-20.2-8.9-12.5-9.4-13.4-8.8-17 2-11.3 9-29.2 16.7-42.8 8.1-14.4 24.3-37.8 29.2-42.3 4.7-4.4 6.6-4.9 11.2-3.2 5.4 2.1 9.1-1 10.9-9.1.8-3.4 6-9.6 9.9-12 3.3-2 15.6-2.8 15.6-1zm222.7 21.8c5.6 7.1 6.2 7.4 11.4 6.9l4.6-.5 1.7 5.5c1.2 3.8 2.5 5.8 4.1 6.6 3.3 1.5 5.1.5 8.4-4.7l2.9-4.6.5 2.8c.3 1.5.8 4.5 1.2 6.6.7 4.4 4.2 7.2 7.7 6.2 1.3-.4 3.5-2.1 5-3.8 3.8-4.5 4.8-2.8 5.5 8.8l.6 9.8-13.4-.7c-17.2-1-18.3-1.5-18.9-8.6-.5-5.1-.8-5.6-4-7.2-1.9-1-4.5-1.8-5.7-1.8-3.7 0-9.7-6.3-13.1-13.7-5.8-12.8-5.2-15.9 1.5-7.6zm-47.3 30.8c5.1 7.7 10.3 14.9 11.5 15.9 1.2 1.1 2.1 3.1 2.1 4.7 0 5.2 27.6 35.2 36.5 39.6 8.3 4.2 19.2 5.4 24.9 2.7 3.4-1.7 3.5-1.6 8.8 1.6 2.9 1.8 5.5 3.4 5.7 3.6 1.4 1.3 1.9 12.4 1.1 21.9-1.5 16-10.4 79.3-11.4 80.2-.2.2-2.5-2.4-5.2-5.9-2.6-3.5-8.7-10.5-13.6-15.6-13.5-14.2-13-12.2-5.8-24.4 7.2-12 13.8-19.3 19.7-21.9 3-1.3 4.4-2.6 4.9-4.4 1-4.2-2.3-6.7-9.8-7.6-9-1-16.7-4.2-21.7-9.1-5.1-5-7.1-9.2-7.1-14.8 0-4.6-2.1-9.4-4.5-10.4-2.8-1-6.9-.6-8.9.9-3.1 2.4-11 1.9-14-.8-4.2-3.7-9.3-14.6-12.5-26.7-1.7-6.3-6-20.3-9.5-31-6.4-19-6.4-19.4-3.5-16 1.7 1.9 7.2 9.8 12.3 17.5zm-138.6 29.7c4.1 12.9 7.1 23.6 9.5 33.8 1.4 5.8 4.9 17.7 7.7 26.4 7.6 23.6 10.9 47 11 77.1.1 19.1 1.2 29 3.7 32.3 1.1 1.4 5.5 4.4 9.9 6.6l7.9 4.1.8 11c1.1 15.9 1.4 15.5-7.3 8.8-13-10.1-18.3-15.7-23.2-24.5-2.6-4.6-6.2-10.5-8.1-13.1-6.1-8.6-19.8-22.7-33.1-34.2-7.2-6.2-14.1-12.7-15.4-14.4-2.2-3-2.2-3.3-1.1-14.3 2.6-25.9 9.1-67.1 13.3-84l4.3-17.3 3.2-.6c4.6-1 5.7-2.3 7.5-9.3.8-3.5 2.1-7.7 2.7-9.2 1.1-2.7 1.2-2.4 2.9 5.8 1 4.8 2.7 11.6 3.8 15zm282.7-11.1c4.4 13.2 9.7 17.1 16.6 12 3.1-2.3 3.1-2.2 4.2 2.6.4 1.6 0 2.3-.9 2.3-.8 0-3.7 1.1-6.4 2.5-6.8 3.4-11.5 3.4-13.2-.3-.9-1.9-2.6-3.1-5.9-4.1-4-1.2-4.8-1.9-5.9-5.1-1.7-5.1.1-10.5 4.8-14.7 2.1-1.8 3.8-3.3 3.9-3.3.1 0 1.4 3.7 2.8 8.1zm30.6 30.2c2.6-.5 2.8-.3 4.8 6.3l2.1 6.9-4.3 3.7c-2.3 2-5.1 3.7-6.3 3.8-1.8 0-2.3-.9-3.3-6.9-1.2-7.7-1.4-14.4-.5-15.4.4-.3 1.6 0 2.7.8 1.2.8 3.1 1.2 4.8.8zm376.5 283.6c6 1.7 9.3 3.3 13 6.3 2.7 2.2 6.7 4.9 8.9 6 4 2.1 4.1 2.1 15.3.3 20.1-3.1 24.4-2.7 46.9 4.6 16.3 5.3 20.2 7 23.7 10.1l4.1 3.6-2.5 2.7c-3.7 4-9.3 6.5-14.4 6.5-4.2 0-5-.4-10.4-5.8-6.7-6.8-11.9-9-23.2-9.8-12.9-1-28.2 2.7-40.7 9.7-2.9 1.6-5.9 2.9-6.8 2.9-2.9 0-8-5.7-9.2-10.3-.7-2.4-2.7-6.4-4.5-8.8-2.7-3.5-4.5-4.8-9.3-6.3-5.2-1.7-6.6-1.8-12.8-.7-11 1.8-15.1 4.2-24.9 14.1-4.8 5-9.4 9-10.1 9-.7 0-3.3-2.1-5.7-4.6-2.5-2.5-6.4-5.7-8.7-7.1-3.7-2.2-4.7-2.3-7.6-1.4-3.5 1.2-7 4.5-10.1 9.5-2.3 3.6-2.6 3-5.1-7.9-1-4.4-2.3-10.2-3.1-12.9l-1.2-4.8 3.6.5c24.2 3.8 35.2 3.2 55.4-3.3 6.8-2.1 13.2-4.1 14.3-4.4 4.1-1 17.2.2 25.1 2.3z" fill="#fff"/></svg>