<?xml version="1.0" encoding="UTF-8" standalone="no"?>
<svg
   width="539.7207"
   height="753.50909"
   viewBox="0 0 539.7207 753.50909"
   version="1.1"
   id="svg4"
   xmlns="http://www.w3.org/2000/svg"
   xmlns:svg="http://www.w3.org/2000/svg">
  <defs
     id="defs8" />
  <path
     d="m 224.2207,1.6635173 c -10.616,2.442 -19.832,6.003 -31.438,12.1469997 -20.786,11.005 -35.2,25.161 -50.795,49.886 -13.641,21.626 -18.85,35.296 -32.961,86.500003 -2.623,9.519 -2.753,11.034 -2.703,31.5 0.06,24.319 1.066,31.914 5.362,40.5 2.414,4.823 2.957,7.084 2.769,11.527 -0.213,5.035 0.226,6.325 4.939,14.5 3.081,5.345 6.047,12.208 7.336,16.973 4.609,17.043 5.308,19.138 7.839,23.48 1.436,2.463 4.237,6.105 6.224,8.092 l 3.613,3.613 -4.224,9.408 c -2.323,5.174 -4.84,9.511 -5.593,9.638 -0.752,0.126 -4.743,-1.686 -8.868,-4.027 -7.184,-4.077 -7.848,-4.777 -15.778,-16.628 -9.048,-13.522 -29.203004,-48.547 -31.059004,-53.975 -1.59,-4.649 -1.457,-11.187 0.409,-20.101 1.573,-7.518 1.366,-13.185 -0.726,-19.819 -0.727,-2.306 -1.498,-3.145 -2.528,-2.75 -0.815,0.313 -1.67,0.569 -1.9,0.569 -0.23,0 -0.418,0.853 -0.418,1.895 0,3.265 -4.118,15.393 -4.915,14.477 -0.418,-0.48 -2.47,-7.622 -4.561,-15.872 -4.211,-16.616 -4.93,-18.5 -7.059,-18.5 -1.833,0 -1.833,2.222 -10e-4,25 0.93,11.564 2.138,19.874 3.56,24.5 2.724,8.858 13.18,29.107 28.917,56 15.895004,27.162 19.363004,32.286 28.626004,42.295 l 7.676,8.294 -2.176,5.687 c -2.498,6.529 -4.602,9.224 -7.199,9.224 -1.002,0 -2.584,1.164 -3.516,2.586 -0.932,1.422 -4.172,4.235 -7.2,6.25 -3.029,2.015 -5.677,4.189 -5.885004,4.83 -0.577,1.779 2.670004,2.075 8.483004,0.773 2.888,-0.647 5.25,-0.811 5.25,-0.363 0,0.447 -1.085,2.075 -2.411,3.618 l -2.412,2.806 -28.338004,0.572 c -39.799,0.803 -44.658,2.115 -60.34,16.29 -6.254,5.653 -8.354,8.384 -11.9190001,15.5 -6.586,13.144 -8.87200005,18.935 -8.18300005,20.731 0.96800005,2.521 2.86700005,0.441 11.03500015,-12.086 8.498,-13.033 13.964,-18.833 16.877,-17.909 1.29,0.41 4.913,-0.884 10.46,-3.736 l 8.487,-4.362 h 29.371 c 16.155,0 29.372004,0.364 29.372004,0.81 10e-4,0.445 -1.787,6.12 -3.972,12.611 -4.063004,12.067 -7.016004,26.896 -7.023004,35.27 -0.004,4.881 1.075,6.673 2.74,4.548 1.029,-1.313 13.367004,-39.929 15.338004,-48.006 0.64,-2.622 1.52,-4.987 1.955,-5.256 0.675,-0.417 5.864,-1.6 18.098,-4.126 3.461,-0.715 3.405,-0.749 27.014,16.355 25.669,18.596 33.631,23.389 45.312,27.281 8.363,2.786 9.531,3.476 10.95,6.467 2.358,4.969 2.09,9.425 -0.627,10.43 -2.55,0.943 -10.926,-0.751 -24.284,-4.911 -4.95,-1.542 -10.575,-3.108 -12.5,-3.481 -1.925,-0.373 -13.85,-4.788 -26.5,-9.812 -16.918,-6.718 -24.124,-9.114 -27.251,-9.061 -7.859,0.134 -10.413,5.099 -7.805,15.167 0.856,3.301 1.556,7.828 1.556,10.059 0,10.988 3.232,17.292 15.385,30.006 7.331,7.669 23.788,19.928 33.115,24.667 5.242,2.664 8.43,4.957 9.246,6.652 1.767,3.667 7.333,7.621 13.918,9.886 10.757,3.702 14.25,1.806 7.231,-3.924 -2.417,-1.973 -7.856,-7.02 -12.085,-11.215 -4.791,-4.751 -9.773,-8.612 -13.214,-10.242 -6.573,-3.112 -12.237,-8.031 -17.317,-15.042 -2.046,-2.823 -6.932,-9.183 -10.857,-14.133 -8.302,-10.47 -11.087,-16.622 -9.46,-20.9 1.246,-3.277 3.208,-3.235 11.538,0.247 27.164,11.352 37.192,14.708 51.391,17.199 12.845,2.253 19.109,4.228 19.109,6.025 0,0.574 -0.496,4.055 -1.101,7.736 -0.996,6.051 -0.889,7.269 1.116,12.693 3.476,9.41 3.504,10.759 0.334,16.153 -2.677,4.554 -2.851,5.542 -2.89,16.347 -0.026,7.329 -0.524,12.588 -1.374,14.5 -2.534,5.704 -2.467,11.545 0.222,19.526 1.821,5.403 2.489,9.414 2.41,14.474 -0.084,5.454 0.745,9.843 3.754,19.875 3.061,10.207 3.621,13.211 2.701,14.5 -5.178,7.251 -7.154,11.893 -7.163,16.826 -0.011,6.514 1.696,14.728 4.014,19.313 1.724,3.409 1.718,3.588 -0.205,5.963 -1.51,1.864 -1.886,3.529 -1.578,6.985 0.223,2.496 0.748,5.298 1.166,6.227 0.613,1.359 0.013,1.871 -3.072,2.623 -2.109,0.513 -7.884,1.909 -12.834,3.1 -16.292,3.922 -23.26,7.969 -45,26.129 -15.762,13.167 -16.928,14.324 -18.441,18.305 -0.918,2.414 -0.684,3.572 1.552,7.681 3.191,5.862 15.765,16.377 25.323,21.176 5.998,3.012 7.286,3.282 14.9,3.122 7.651,-0.16 8.712,0.066 12.951,2.754 2.54,1.61 7.114,3.867 10.166,5.014 6.887,2.589 24.275,4.049 32.167,2.7 5.139,-0.878 6.068,-0.732 10.888,1.71 2.898,1.468 7.603,2.911 10.456,3.205 9.123,0.942 23.615,-4.614 29.491,-11.307 l 2.815,-3.206 2.214,2.994 c 2.896,3.918 6.83,5.453 16.194,6.321 6.423,0.595 8.755,0.363 14.285,-1.424 8.196,-2.648 22.028,-8.987 27.039,-12.392 l 3.763,-2.557 3.604,1.931 c 7.748,4.154 15.62,1.442 25.035,-8.623 8.612,-9.205 10.691,-16.718 7.552,-27.288 -3.393,-11.427 -17.082,-20.429 -48.954,-32.195 -7.7,-2.843 -14.752,-5.834 -15.671,-6.648 -1.256,-1.113 -1.628,-2.978 -1.5,-7.516 l 0.171,-6.037 -4.958,-4.368 -4.959,-4.368 3.097,-3.262 c 6.587,-6.941 8.78,-15.911 5.81,-23.763 -2.706,-7.155 -2.809,-10.228 -0.58,-17.443 2.818,-9.125 2.681,-13.71 -0.582,-19.515 l -2.672,-4.753 2.29,-7.122 c 2.475,-7.696 2.34,-13.617 -0.524,-23.054 -2.038,-6.713 -1.8,-8.35 2.041,-14.058 4.299,-6.389 5.259,-11.051 3.502,-17.016 -0.735,-2.497 -1.272,-6.114 -1.194,-8.039 0.458,-11.219 0.279,-13.855 -1.17,-17.218 -0.918,-2.131 -1.601,-6.467 -1.601,-10.159 v -6.44 l 6.25,-4.941 c 3.438,-2.717 11.2,-9.102 17.25,-14.188 20.56,-17.286 33.088,-26.054 37.226,-26.054 1.004,0 5.02,1.988 8.925,4.418 9.274,5.771 14.87,7.582 23.434,7.582 8.632,0 11.71,1.484 14.831,7.152 5.777,10.489 8.831,13.589 17.684,17.955 7.1,3.501 8.904,4.896 11.038,8.539 2.525,4.308 6.362,6.034 6.362,2.862 0,-2.557 -11.735,-19.863 -15.462,-22.803 -1.949,-1.537 -4.502,-4.687 -5.673,-7 -5.039,-9.944 -11.089,-14.632 -20.865,-16.168 -10.718,-1.683 -16.846,-3.883 -25,-8.974 -13.435,-8.389 -12.048,-8.049 -20.804,-5.092 -8.799,2.971 -9.059,3.148 -32.515,22.173 -15.918,12.911 -21.013,16.358 -22.291,15.08 -0.252,-0.253 -0.158,-4.069 0.21,-8.48 l 0.669,-8.02 6.214,-1.682 c 10.222,-2.767 29.17,-13.684 41.19,-23.733 5.879,-4.914 13.34,-10.795 16.581,-13.068 6.229,-4.369 9.277,-8.65 12.682,-17.807 2.6,-6.992 4.888,-9.098 18.735,-17.249 21.029,-12.38 27.956,-15.09 46.632,-18.243 11.907,-2.011 11.857,-2.04 18.2,10.558 2.353,4.675 7.552,13.45 11.553,19.5 4.002,6.05 8.815,14.319 10.698,18.376 1.882,4.056 7.621,13.399 12.751,20.761 5.909,8.479 10.326,16.039 12.049,20.624 1.495,3.982 3.636,8.251 4.757,9.489 2.075,2.291 4.689,3.018 4.689,1.303 0,-2.631 -14.702,-30.94 -21.061,-40.553 -10.272,-15.529 -33.284,-58.555 -32.002,-59.837 1.578,-1.578 20.147,1.839 25.934,4.772 2.71,1.373 6.267,4.123 7.906,6.11 2.72,3.3 6.165,12.638 7.856,21.291 0.695,3.557 2.814,5.117 4.569,3.362 1.238,-1.238 -0.514,-28.274 -2.228,-34.387 -0.918,-3.276 -1.677,-3.933 -6.754,-5.854 -6.35,-2.402 -35.134,-8.915 -39.515,-8.941 -1.583,-0.009 -3.814,-1.034 -5.144,-2.364 -2.078,-2.078 -11.37,-20.202 -17.51,-34.152 -1.21,-2.75 -5.778,-11.35 -10.151,-19.112 l -7.95,-14.112 3.371,-5.01 c 1.854,-2.756 4.093,-7.88 4.975,-11.388 0.881,-3.508 4.326,-11.661 7.653,-18.119 7.184,-13.939 7.306,-15.193 3.607,-37.028 -4.376,-25.831 -10.425,-46.05 -19.603,-65.518 -6.111,-12.964 -11.885,-21.664003 -21.154,-31.875003 -8.992,-9.906 -41.45,-40.839 -52.299,-49.842 -13.99,-11.611 -31.912,-18.845 -54.235,-21.892 -31.854,-4.3479997 -41.619,-4.8149997 -53.163,-2.544 -7.736,1.522 -9.168,2.785 -8.118,7.162 1.305,5.443 2.069,6.647 5.605,8.833 4.062,2.51 15.069,16.892 19.858,25.945 2.681,5.069 6.32,9.22 16.53,18.855 7.2,6.796 14.865,14.967 17.032,18.158 2.167,3.192 9,10.364003 15.184,15.940003 10.412,9.387 15.243,12.517 26.113,16.919 3.557,1.44 2.485,3.536 -1.41,2.757 -1.574,-0.315 -5.119,-2.125 -7.878,-4.023 -2.759,-1.897 -6.704,-3.989 -8.767,-4.647 -2.063,-0.658 -5.79,-2.429 -8.282,-3.934 -2.493,-1.506 -6.318,-3.309 -8.5,-4.008 -2.183,-0.698 -5.544,-1.783 -7.469,-2.409 -2.591,-0.844 -4.019,-2.205 -5.5,-5.24 -3.012,-6.176003 -4.192,-7.178003 -10.556,-8.964003 -3.216,-0.902 -6.597,-2.468 -7.513,-3.48 -0.915,-1.012 -2.544,-5.121 -3.62,-9.132 -2.155,-8.036 -3.599,-10.131 -8.824,-12.798 -5.354,-2.733 -8.417,-6.321 -13.054,-15.296 -5.943,-11.5 -9.736,-16.498 -14.749,-19.436 -6.018,-3.527 -7.451,-2.05 -7.361,7.583 0.116,12.277 8.654,33.086 24.594,59.941 16.167,27.235003 41.155,51.933003 57.873,57.201003 3.94,1.242 8.945,5.728 13.849,12.413 3.532,4.815 3.58,6.579 0.265,9.676 -1.427,1.333 -5.361,6.924 -8.74,12.424 -3.38,5.5 -8.868,13.375 -12.196,17.5 -8.51,10.548 -9.988,12.797 -14.584,22.188 -5.445,11.126 -16.507,22.399 -19.913,20.294 -1.503,-0.929 -1.148,-9.524 0.641,-15.549 1.74,-5.859 7.384,-17.657 10.673,-22.311 1.119,-1.583 4.55,-4.015 7.624,-5.403 7.705,-3.48 11.091,-6.01 11.091,-8.287 0,-2.429 -0.482,-2.415 -4.604,0.132 l -3.341,2.065 2.036,-4.601 c 1.119,-2.53 1.894,-5.795 1.722,-7.254 -0.288,-2.438 -0.759,-2.058 -5.813,4.689 -13.584,18.136 -19.957,28.809 -22.589,37.826 -0.917,3.141 -1.909,6.386 -2.205,7.211 -0.296,0.825 -0.89,-1.355 -1.321,-4.844 -0.869,-7.025 -4.473,-18.783 -6.059,-19.763 -1.972,-1.219 -3.642,2.207 -5.827,11.953 -3.545,15.816 -4.462,12.002 -4.723,-19.645 -0.124,-14.961 -0.236,-27.539 -0.25,-27.951 -0.014,-0.412 -0.701,-0.75 -1.526,-0.75 -1.083,0 -1.5,1.111 -1.5,4 0,7.017 -1.766,4.292 -2.485,-3.836 -1.4,-15.81 -4.252,-11.522 -3.139,4.718 0.363,5.29 1.555,12.976 2.649,17.08 1.125,4.216 2.238,12.48 2.56,19 0.314,6.346 1.248,15.063 2.076,19.372 0.827,4.308 1.253,8.085 0.946,8.392 -0.956,0.957 -3.418,-1.693 -9.082,-9.777 -4.103,-5.855 -8.644,-10.427 -18.244,-18.364 -7.03,-5.812 -16.105,-14.2 -20.167,-18.641 l -7.387,-8.074 -4.113,0.671 c -5.37,0.875 -9.796,3.638 -13.674,8.535 -2.796,3.53 -12.985,24.081 -17.358,35.01 -1.316,3.289 -1.916,3.882 -3.012,2.972 -2.239,-1.858 -11.57,-16.546 -11.57,-18.212 0,-0.847 2.25,-4.645 5.001,-8.442 20.537,-28.353 36.249,-57.319 49.037,-90.404 3.721,-9.625 8.794,-22.45 11.274,-28.500003 12.028,-29.339 18.184,-58.343 17.509,-82.5 -0.32,-11.45599966 -0.33,-11.50099966 -2.821,-11.68699966 -1.375,-0.103 -6.1,0.642 -10.5,1.65399996 m 78.041,35.6089997 c -0.671,4.471 -0.571,4.699 4.317,9.868 2.753,2.91 5.703,6.963 6.557,9.006 1.384,3.313 1.852,3.651 4.319,3.113 1.521,-0.332 5.016,-0.177 7.766,0.345 2.75,0.522 5.333,0.626 5.74,0.23 1.373,-1.332 -1.118,-7.26 -4.729,-11.258 -1.972,-2.182 -4.327,-5.523 -5.233,-7.424 -1.784,-3.74 -3.324,-4.311 -5.278,-1.956 -2.063,2.486 -4.492,1.716 -7.88,-2.5 -1.768,-2.2 -3.592,-4 -4.054,-4 -0.461,0 -1.148,2.059 -1.525,4.576 m -103.741,25.196 c -7.145,13.611 -14.166,30.33 -15.32,36.482 l -0.703,3.746003 h 4.539 c 4.614,0 5.193,0.407 9.454,6.642 1.151,1.685 1.211,1.625 0.635,-0.642 -0.775,-3.05 -3.982,-6.678 -7.379,-8.346 -1.907,-0.937003 -2.476,-1.929003 -2.324,-4.051003 0.112,-1.546 4.43,-12.664 9.597,-24.707 5.167,-12.043 9.125,-21.894 8.797,-21.892 -0.328,0.003 -3.611,5.748 -7.296,12.768 m -42.515,-4.24 c -7.249,6.341 -11.043,12.709 -19.047,31.968 -12.395,29.825003 -16.236,42.608003 -20.705,68.908003 -2.724,16.03 -3.068,24.306 -1.557,37.445 0.914,7.953 3.236,14.051 5.658,14.858 1.04,0.347 2.927,-3.381 5.911,-11.679 1.117,-3.106 0.998,-3.944 -1.144,-8.04 -5.213,-9.969 -5.453,-22.752 -0.889,-47.458 3.365,-18.219 6.466,-28.241 14.098,-45.560003 7.342,-16.664 11.714,-23.997 19.29,-32.363 3.692,-4.077 5.1,-6.441 5.1,-8.563 0,-1.611 -0.371,-3.159 -0.824,-3.439 -0.453,-0.28 -3.104,1.485 -5.891,3.923 m 169.288,4.363 c -1.788,0.701 -1.8,0.804 -0.168,1.43 2.521,0.967 6.595,0.833 6.595,-0.218 0,-0.865 -2.473,-2.18 -3.832,-2.037 -0.367,0.039 -1.535,0.41 -2.595,0.825 m 1.427,5.447 c 0,1.717 4.374,6.902 18.059,21.408 4.8,5.088 9.2,9.25 9.777,9.25 0.578,0 1.848,1.350003 2.823,3.000003 1.932,3.27 2.176,3.391 4.223,2.094 2.455,-1.555 0.393,-7.352003 -4.992,-14.036003 -2.799,-3.473 -7.068,-9.574 -9.486,-13.557 -4.368,-7.195 -4.431,-7.247 -9.541,-7.925 -2.829,-0.375 -6.43,-0.939 -8.003,-1.254 -2.188,-0.438 -2.86,-0.198 -2.86,1.02 m 22.044,105.718003 c -5.662,4.475 -12.421,13.117 -17.051,21.8 -1.654,3.102 -7.079,10.815 -12.054,17.14 -4.976,6.325 -9.751,12.817 -10.61,14.428 -1.449,2.711 -1.431,3.025 0.245,4.25 0.994,0.727 2.367,1.322 3.05,1.322 1.717,0 2.819,-3.957 1.475,-5.301 -1.675,-1.675 -1.327,-2.366 1.149,-2.278 1.968,0.069 2.206,-0.344 1.91,-3.313 -0.278,-2.781 -0.049,-3.28 1.273,-2.773 1.195,0.459 2.777,-1.199 6.12,-6.415 2.48,-3.869 8.26,-11.663 12.845,-17.32 4.585,-5.658 9.565,-12.384 11.067,-14.947 3.047,-5.199 6.884,-8.653 9.613,-8.653 0.993,0 2.084,-0.45 2.424,-1 0.367,-0.593 -0.793,-1 -2.851,-1 -2.546,0 -4.836,1.081 -8.605,4.06 m 20.956,3.81 c 0,1.457 14.045,15.613 17,17.134 l 2.5,1.287 -1.963,-2.395 c -7.045,-8.596 -17.537,-18.184 -17.537,-16.026 m -26.379,17.274 c -4.742,5.618 -8.621,10.582 -8.621,11.032 0,1.04 6.997,8.824 7.931,8.824 1.603,0 4.372,-8.011 5.164,-14.937 0.908,-7.942 3.09,-11.949 4.938,-9.063 3.06,4.781 3.7,13.689 1.785,24.856 l -1.182,6.892 4.691,7.526 c 2.58,4.139 5.511,8.54 6.515,9.779 l 1.825,2.254 7.961,-4.404 c 4.38,-2.422 10.563,-5.753 13.741,-7.403 3.178,-1.65 7.424,-4.404 9.435,-6.119 l 3.658,-3.119 -5.981,-3.04 c -8.232,-4.185 -18.337,-11.491 -28.823,-20.839 -4.864,-4.336 -10.097,-8.911 -11.63,-10.168 l -2.786,-2.285 -8.621,10.214 m -139.831,6.692 c 5.619,5.808 22.917,21.185 29.94,26.613 3.427,2.648 8.134,7.283 10.461,10.299 2.328,3.017 4.409,4.952 4.626,4.3 0.643,-1.928 -6.782,-9.941 -17.909,-19.328 -5.724,-4.83 -14.242,-12.592 -18.928,-17.25 -4.686,-4.659 -9.28,-8.47 -10.21,-8.47 -1.235,0 -0.692,1.031 2.02,3.836 m -13.045,2.414 c -4.895,5.269 -12.454,20.833 -21.249,43.75 -10.397,27.092 -23.5,58.739 -37.469,90.5 -7.016,15.95 -13.083,30.125 -13.484,31.5 -0.697,2.393 -0.666,2.414 0.716,0.5 2.376,-3.289 16.741,-35.167 16.745,-37.158 0.002,-1.013 0.928,-3.358 2.057,-5.211 1.13,-1.853 3.41,-6.803 5.067,-11 4.013,-10.167 20.554,-44.09 26.932,-55.235 4.274,-7.47 4.985,-9.414 4.406,-12.052 -0.553,-2.518 -0.401,-3.033 0.766,-2.585 0.992,0.38 2.13,-0.824 3.561,-3.77 1.819,-3.744 1.908,-4.493 0.655,-5.532 -2.11,-1.751 -1.771,-3.194 0.576,-2.449 1.785,0.566 2.786,-0.966 8.5,-13.02 3.562,-7.514 6.476,-13.848 6.476,-14.075 0,-0.227 -1.125,-0.413 -2.5,-0.413 -1.375,0 -2.5,-0.45 -2.5,-1 0,-0.55 0.863,-1 1.918,-1 2.981,0 5.082,-1.078 5.082,-2.607 0,-0.766 0.702,-1.393 1.559,-1.393 0.857,0 1.281,-0.45 0.941,-1 -1.341,-2.17 -4.973,-0.822 -8.755,3.25 m 207.255,-0.9 c 0,0.267 3.712,4.515 8.25,9.441 15.738,17.085 33.717,46.184 55.823,90.354 9.71,19.403 17.709,33.406 18.583,32.532 0.716,-0.715 -3.419,-10.675 -9.621,-23.177 -3.274,-6.6 -8.216,-16.725 -10.981,-22.5 -4.676,-9.766 -8.123,-16.329 -16.552,-31.516 -1.836,-3.309 -5.099,-8.034 -7.25,-10.5 -2.151,-2.466 -6.42,-8.309 -9.486,-12.984 -6.613,-10.083 -17.603,-22.993 -24.105,-28.317 -2.563,-2.099 -4.661,-3.599 -4.661,-3.333 m -197.72,5.9 c -1.783,2.31 -15.048,28.188 -17.556,34.25 -4.481,10.829 -4.679,9.901 3.183,14.941 9.708,6.222 14.199,10.51 21.272,20.307 5.715,7.917 12.545,14.252 15.365,14.252 0.952,0 1.127,-2.879 0.746,-12.25 -0.505,-12.399 0.382,-17.762 2.935,-17.738 0.701,0.006 2.836,2.819 4.745,6.25 l 3.47,6.238 0.596,-4.24 c 0.606,-4.315 3.798,-8.755 7.03,-9.781 2.823,-0.896 2.898,-2.702 0.515,-12.361 -2.588,-10.491 -3.155,-11.248 -16.277,-21.756 -5.058,-4.051 -11.358,-9.547 -14,-12.214 -6.709,-6.772 -10.075,-8.423 -12.024,-5.898 m 125.065,10.5 c -2.044,3.162 -4.815,8.434 -6.157,11.714 -1.764,4.31 -4.184,7.648 -8.729,12.039 -6.362,6.146 -8.623,11.021 -7.034,15.162 0.558,1.454 0.862,1.354 2.256,-0.742 3.428,-5.154 6.295,-5.883 6.344,-1.614 0.014,1.205 -1.18,9.852 -2.654,19.216 -2.627,16.699 -2.644,17.097 -0.867,20.841 0.996,2.1 2.449,4.062 3.228,4.361 2.392,0.918 10.01,-7.589 17.327,-19.351 9.659,-15.527 17.514,-22.242 24.487,-20.933 l 3.302,0.619 0.683,-5.467 c 0.67,-5.357 0.593,-5.586 -3.786,-11.282 -2.458,-3.197 -5.837,-8.513 -7.507,-11.813 -2.944,-5.815 -14.003,-18.5 -16.128,-18.5 -0.577,0 -2.721,2.588 -4.765,5.75 m -58.271,16.89 c -4.002,17.749 -6.196,24.729 -10.667,33.929 -2.424,4.987 -4.407,9.527 -4.407,10.089 0,0.562 1.173,1.555 2.606,2.208 2.235,1.019 2.528,1.647 2.054,4.411 -0.304,1.773 -0.841,9.298 -1.194,16.723 -0.448,9.442 -1.517,17.296 -3.554,26.129 -3.14,13.619 -3.746,25.622 -1.606,31.836 1.178,3.418 6.579,8.035 9.4,8.035 1.78,0 10.116,-7.99 10.432,-10 0.13,-0.825 -0.349,-4.828 -1.066,-8.895 -1.001,-5.686 -1.037,-8.278 -0.158,-11.213 0.914,-3.051 0.855,-4.509 -0.295,-7.261 -1.254,-3.002 -1.252,-3.71 0.016,-5.52 1.626,-2.322 0.93,-4.385 -2.542,-7.527 -2.605,-2.357 -2.633,-4.017 -0.128,-7.535 4.301,-6.04 3.354,-17.077 -1.886,-21.979 -6.296,-5.891 -6.498,-9.476 -0.993,-17.57 3.488,-5.127 3.998,-6.529 3.505,-9.633 -0.409,-2.573 -0.137,-3.999 0.93,-4.885 1.105,-0.917 1.47,-3.085 1.367,-8.112 -0.086,-4.193 0.342,-7.442 1.101,-8.357 1.47,-1.772 1.656,-10.538 0.275,-13.006 -0.743,-1.328 -1.481,0.552 -3.19,8.133 m -124.074,-4.109 c 0,0.808 0.675,1.469 1.5,1.469 0.825,0 1.5,-0.402 1.5,-0.893 0,-0.491 -0.675,-1.152 -1.5,-1.469 -0.914,-0.35 -1.5,-0.001 -1.5,0.893 m 164.5,2.215 c -2.246,0.377 -6.784,6.676 -6.309,8.757 0.198,0.867 2.252,-0.358 5.718,-3.407 5.312,-4.675 5.477,-6.169 0.591,-5.35 m -178.5,4.168 c 0,2.088 1.085,4.289 3.368,6.833 4.188,4.667 6.594,9.443 10.073,19.993 1.494,4.531 3.131,8.495 3.638,8.809 1.896,1.172 0.765,-5.289 -2.106,-12.02 -1.635,-3.834 -2.973,-8.421 -2.973,-10.192 0,-2.3 -1.359,-5.007 -4.75,-9.465 -5.62,-7.386 -7.25,-8.276 -7.25,-3.958 m 233.425,7.687 c 0.394,1.594 2.04,4.971 3.657,7.504 6.791,10.636 12.35,31.422 11.737,43.892 l -0.319,6.503 h 4 4 l -0.141,-8.548 c -0.252,-15.234 -9.907,-39.748 -17.559,-44.578 -2.257,-1.425 -3.8,-3.182 -3.8,-4.328 0,-1.06 -0.516,-2.247 -1.146,-2.636 -0.816,-0.505 -0.94,0.125 -0.429,2.191 m -114.425,3.78 c 0,1.565 1.25,3.335 3.645,5.162 3.491,2.663 3.703,2.702 5,0.928 2.15,-2.941 1.651,-3.929 -3.172,-6.272 -5.583,-2.712 -5.473,-2.716 -5.473,0.182 m 44.455,1.074 c -2.948,2.947 -3.166,6.094 -0.521,7.51 3.481,1.863 4.041,1.216 2.566,-2.965 l -1.411,-4 h 2.955 c 3.169,0 3.971,-1.397 1.374,-2.393 -2.25,-0.863 -2.254,-0.862 -4.963,1.848 m -3.092,13.846 c 3.985,3.188 3.265,5.93 -1.874,7.133 -2.194,0.514 -4.121,1.021 -4.282,1.126 -0.161,0.106 0.485,1.823 1.435,3.816 2.198,4.609 5.078,4.75 9.368,0.46 3.59,-3.59 5.212,-7.093 4.339,-9.37 -0.693,-1.804 -7.442,-5.468 -10.059,-5.461 -1.41,0.004 -1.182,0.492 1.073,2.296 m 141.609,4.32 c -3.005,3.091 -7.265,6.851 -9.467,8.355 -7.091,4.842 -19.498,11.238 -25.251,13.018 l -5.597,1.732 0.235,6.5 0.236,6.5 -5.557,5.887 c -3.056,3.238 -5.803,6.638 -6.105,7.557 -0.303,0.918 1.76,8.331 4.584,16.473 4.811,13.875 5.058,15.054 3.934,18.803 -2,6.676 -11.442,14.846 -28.028,24.251 -15.454,8.763 -19.612,10.722 -30.206,14.23 l -6.75,2.236 v 6.919 c 0,6.568 0.117,6.918 2.318,6.918 3.166,0 12.319,-2.787 17.182,-5.231 2.2,-1.106 8.05,-4.946 13,-8.534 20.423,-14.803 29.293,-23.767 38.505,-38.913 3.832,-6.299 5.23,-7.671 11.431,-11.207 18.299,-10.437 42.067,-19.267 56.209,-20.882 3.529,-0.403 6.384,-1.183 6.344,-1.733 -0.1,-1.393 -21.401,-43.517 -26.168,-51.75 -2.15,-3.712 -4.241,-6.75 -4.647,-6.75 -0.407,0 -3.197,2.529 -6.202,5.621 m -186.972,-3.646 c -1.185,0.785 -0.934,0.998 1.191,1.01 3.697,0.021 4.283,1.495 1.591,4.004 -1.51,1.406 -3.018,1.918 -4.534,1.537 -2.203,-0.553 -2.231,-0.471 -0.937,2.702 1.941,4.757 4.534,4.252 8.48,-1.652 2.677,-4.007 3.05,-5.158 2,-6.184 -1.859,-1.815 -6.043,-2.576 -7.791,-1.417 m -158.800004,4.225 c -0.66,0.66 -1.2,1.488 -1.2,1.84 0,1.442 19.546004,35.903 23.517004,41.46 7.519,10.525 17.511,21.5 19.574,21.5 1.225,0 2.542,-1.26 3.569,-3.412 1.533,-3.216 1.515,-3.605 -0.308,-6.75 -1.274,-2.198 -3.966,-4.362 -7.883,-6.338 -4.174,-2.105 -7.315,-4.708 -10.529,-8.727 -4.716,-5.897 -18.006004,-27.605 -22.054004,-36.023 -2.453,-5.1 -2.841,-5.395 -4.686,-3.55 m 62.060004,47.05 c -2.238,5.637 -3.775,10.553 -3.415,10.923 1.282,1.316 33.766,17.134 40.155,19.553 3.575,1.353 11.43,3.758 17.456,5.343 12.386,3.258 12.504,3.217 12.529,-4.319 0.012,-3.935 -0.298,-4.75 -1.808,-4.75 -5.42,0 -32.502,-16.204 -51.631,-30.892 -4.374,-3.36 -8.238,-6.108 -8.585,-6.108 -0.347,0 -2.463,4.613 -4.701,10.25 m 136.764,-9.667 c 0.013,0.504 0.435,2.691 0.938,4.859 0.601,2.591 0.527,5.618 -0.214,8.831 -0.884,3.83 -0.85,5.334 0.159,6.949 0.923,1.478 1.204,5.773 0.994,15.17 -0.339,15.162 0.234,18.008 3.43,17.023 4.324,-1.332 7.685,-3.51 9.357,-6.061 1.61,-2.457 1.608,-2.866 -0.028,-7.229 -0.954,-2.544 -4.422,-12.466 -7.706,-22.05 -5.542,-16.174 -6.991,-19.831 -6.93,-17.492 m 88.43,3.511 c -2.775,1.578 -12.944,10.457 -22.598,19.732 -9.655,9.276 -20.335,18.582 -23.735,20.68 -3.399,2.098 -6.02,4.305 -5.824,4.905 0.197,0.599 1.926,1.224 3.843,1.388 5.576,0.479 22.061,-12.131 39.573,-30.27 13.46,-13.942 16.404,-17.744 14.578,-18.831 -0.435,-0.259 -3.062,0.819 -5.837,2.396 m -13.454,2.486 c -1.925,0.827 -8.704,6.681 -15.065,13.011 -8.584,8.543 -13.22,12.334 -17.986,14.71 -6.721,3.35 -9.099,6.699 -4.757,6.699 4.226,0 8.466,-3.3 25.372,-19.75 9.186,-8.937 16.529,-16.232 16.318,-16.211 -0.21,0.022 -1.957,0.715 -3.882,1.541 m -233.325,11.825 c -1.198,3.122 -0.764,6.595 0.825,6.595 1.608,0 1.901,-3.118 0.605,-6.427 -0.701,-1.788 -0.804,-1.8 -1.43,-0.168 m 335.325,3.569 c 0,0.536 1.238,1.582 2.75,2.324 4.616,2.264 8.738,0.104 4.316,-2.263 -2.446,-1.309 -7.066,-1.349 -7.066,-0.061 m 21,0.939 c 0,1.373 0.917,2.485 2.565,3.112 3.152,1.198 8.435,1.28 8.435,0.13 0,-1.687 -3.585,-4.001 -7.25,-4.682 -3.38,-0.627 -3.75,-0.485 -3.75,1.44 m -118.023,3.004 c -4.096,4.166 -29.309,25.887 -32.95,28.386 -1.359,0.933 -3.644,1.697 -5.077,1.697 -2.41,0 -2.692,0.474 -3.777,6.365 -1.573,8.537 -1.647,8.289 2.337,7.824 4.191,-0.49 41.709,-21.043 45.83,-25.107 l 2.84,-2.8 -2.618,-9.836 c -1.44,-5.409 -2.718,-9.898 -2.84,-9.974 -0.122,-0.076 -1.807,1.474 -3.745,3.445 m 77.023,0.162 c -6.325,2.16 -17.044,6.646 -23.82,9.97 -10.583,5.191 -12.516,6.51 -13.703,9.352 -0.843,2.018 -1.099,4.367 -0.656,6.024 l 0.727,2.716 3.865,-3.072 c 5.457,-4.336 29.514,-16.354 41.22,-20.592 11.437,-4.14 12.512,-4.9 9.813,-6.941 -2.787,-2.109 -4.593,-1.845 -17.446,2.543 m 53,-2.649 c 0,1.525 2.897,3.57 5.057,3.57 1.522,0 -0.591,-2.68 -3.225,-4.09 -1.398,-0.748 -1.832,-0.625 -1.832,0.52 m 8,1.21 c 0,0.837 3.242,3.287 4.405,3.328 0.498,0.018 0.09,-0.868 -0.905,-1.968 -1.773,-1.959 -3.5,-2.63 -3.5,-1.36 m -361.443,4.583 c -0.856,1.222 -1.557,2.736 -1.557,3.364 0,1.678 12.203,6.693 31.439,12.921 12.519,4.053 20.008,7.181 28.702,11.988 6.47,3.577 12.123,6.505 12.561,6.505 0.439,10e-4 0.646,-2.43 0.461,-5.403 l -0.337,-5.404 -4.627,-1.165 c -3.951,-0.995 -4.793,-0.936 -5.773,0.403 -1.531,2.094 -2.426,1.979 -2.426,-0.314 0,-1.511 -2.41,-2.707 -12.25,-6.078 -6.738,-2.308 -18.747,-7.536 -26.689,-11.618 -7.941,-4.082 -15.228,-7.422 -16.193,-7.422 -0.965,0 -2.455,1 -3.311,2.223 m 116.008,-0.328 c -0.597,0.966 1.644,2.105 4.139,2.105 1.256,0 1.311,-0.277 0.296,-1.5 -1.388,-1.673 -3.59,-1.973 -4.435,-0.605 m 265.488,0.605 c -0.113,1.799 3.322,10.5 4.145,10.5 0.441,0 0.802,-0.167 0.802,-0.372 0,-0.981 -4.893,-10.998 -4.947,-10.128 m -38.164,5.688 c 1.926,5.104 5.96,12.442 7.578,13.784 0.892,0.741 -0.267,-2.212 -2.577,-6.563 -4.504,-8.484 -6.645,-11.575 -5.001,-7.221 m -349.869,6.772 c -1.111,2.178 -2.02,4.428 -2.02,5 0,1.583 9.933,1.249 15.943,-0.536 2.918,-0.866 4.912,-1.952 4.431,-2.412 -1.179,-1.128 -13.385,-6.012 -15.026,-6.012 -0.719,0 -2.216,1.782 -3.328,3.96 m 28.055,5.63 c 4.488,5.408 27.077,18.139 42.294,23.838 8.192,3.067 8.631,3.104 8.631,0.727 0,-2.494 -1.882,-3.994 -13.055,-10.405 -12.014,-6.895 -17.168,-9.22 -28.445,-12.832 -10.474,-3.355 -11.191,-3.456 -9.425,-1.328 m 208.425,2.452 c -6.007,4.041 -17.682,11.169 -26.919,16.436 l -4.92,2.805 3.67,1.882 c 2.018,1.036 3.669,2.133 3.669,2.438 0,0.984 -6.447,-0.779 -8.07,-2.206 -1.315,-1.157 -1.867,-1.164 -3.403,-0.041 -2.187,1.6 -1.443,3.119 2.536,5.177 2.655,1.372 3.249,1.358 6.187,-0.152 7.236,-3.718 27.544,-15.813 31.886,-18.991 12.638,-9.25 8.334,-16.072 -4.636,-7.348 m -220.058,-0.103 c -1.132,0.47 -5.632,1.186 -10,1.591 -13.476,1.25 -12.664,2.393 1.253,1.764 15.196,-0.687 15.613,-0.542 21.828,7.608 2.136,2.801 4.805,5.378 5.93,5.728 1.126,0.349 3.723,2.139 5.772,3.977 2.048,1.838 4.973,3.65 6.5,4.026 1.526,0.376 4.218,1.776 5.982,3.111 1.83,1.386 3.725,2.107 4.415,1.68 0.738,-0.456 2.116,0.387 3.539,2.165 2.22,2.775 2.329,2.806 2.334,0.661 0.006,-2.781 1.141,-2.862 3.505,-0.25 0.995,1.1 2.918,2 4.272,2 1.932,0 2.354,0.412 1.961,1.914 -0.353,1.349 0.129,2.082 1.633,2.486 4.105,1.102 4.634,0.716 4.634,-3.377 0,-4.681 -1.139,-5.628 -11.389,-9.461 -10.418,-3.897 -20.854,-9.403 -33.882,-17.878 -12.383,-8.054 -14.938,-9.137 -18.287,-7.745 m -35.442,6.561 c -1.02,1.229 -0.951,1.5 0.378,1.5 0.892,0 1.622,-0.675 1.622,-1.5 0,-0.825 -0.17,-1.5 -0.378,-1.5 -0.207,0 -0.937,0.675 -1.622,1.5 m 28.5,0.623 c -3.3,0.456 -7.059,1.302 -8.354,1.879 -1.294,0.577 -3.848,0.769 -5.674,0.427 -2.991,-0.561 -3.484,-0.307 -4.97,2.567 -0.907,1.754 -1.477,3.362 -1.267,3.572 0.21,0.21 3.263,-0.081 6.784,-0.648 8.144,-1.312 10.55,-0.682 15.481,4.053 11.92,11.447 53.999,36.676 65.75,39.422 2.491,0.583 2.751,0.383 2.759,-2.126 0.004,-1.523 0.288,-5.1 0.631,-7.949 l 0.622,-5.18 -3.881,-0.648 c -6.345,-1.06 -19.444,-6.624 -25.877,-10.992 -3.302,-2.243 -8.254,-5.372 -11.004,-6.954 -2.75,-1.582 -8.375,-6.116 -12.5,-10.076 -4.125,-3.96 -8.625,-7.419 -10,-7.688 -1.375,-0.268 -5.2,-0.115 -8.5,0.341 m 201.888,11.308 c -0.807,2.104 -0.352,2.487 1.959,1.646 1.67,-0.607 1.695,-0.797 0.262,-1.987 -1.332,-1.105 -1.687,-1.05 -2.221,0.341 m -219.582,1.968 c -2.582,0.695 -5.346,1.804 -6.143,2.465 -1.666,1.383 -4.169,6.963 -3.447,7.685 0.266,0.267 4.487,-0.82 9.379,-2.414 5.846,-1.906 9.582,-2.629 10.9,-2.111 1.103,0.434 6.207,3.952 11.342,7.818 5.227,3.935 9.953,6.792 10.736,6.492 0.871,-0.335 1.775,0.45 2.393,2.077 0.547,1.437 2.24,3.157 3.764,3.822 1.523,0.664 3.761,2.234 4.972,3.487 1.211,1.254 2.943,2.28 3.849,2.28 0.906,0 2.908,1.35 4.449,3 1.541,1.65 3.726,3 4.856,3 1.129,0 3.178,1.125 4.553,2.5 1.375,1.375 3.243,2.5 4.151,2.5 0.908,0 3.01,1.143 4.671,2.541 3.144,2.645 4.989,2.634 2.789,-0.017 -0.8,-0.963 -0.871,-1.524 -0.193,-1.524 0.589,0 2.266,1.567 3.727,3.482 1.63,2.137 4.063,3.873 6.301,4.494 5.046,1.402 5.147,1.368 5.131,-1.726 -0.028,-5.627 -0.909,-6.732 -7.295,-9.148 -10.884,-4.117 -23.686,-11.361 -43.564,-24.65 -29.408,-19.661 -27.295,-18.753 -37.321,-16.053 m -64.306004,4.311 c -4.071,1.011 -7.578,6.231 -4.25,6.326 0.688,0.019 5.746,0.437 11.241,0.927 9.824,0.877 19.255,0.303 33.815004,-2.059 6.12,-0.992 6.776,-1.321 6.5,-3.254 -0.302,-2.122 -0.596,-2.152 -22.806004,-2.293 -12.375,-0.079 -23.4,0.08 -24.5,0.353 m 260.591004,1.54 c -0.599,1.596 -0.458,2.341 0.485,2.564 0.732,0.173 1.612,1.204 1.958,2.292 0.395,1.247 1.244,1.801 2.297,1.5 0.918,-0.263 3.582,-1.028 5.919,-1.701 2.337,-0.672 4.25,-1.591 4.25,-2.043 0,-1.42 -7.781,-4.862 -10.992,-4.862 -2.269,0 -3.293,0.588 -3.917,2.25 m -74.111,2.771 c -1.552,1.662 -3.755,4.948 -4.895,7.303 l -2.072,4.281 2.37,11.448 c 1.303,6.296 2.695,14.26 3.092,17.697 0.77,6.668 1.142,6.977 6.273,5.188 2.461,-0.858 3.257,-1.903 4.149,-5.443 0.607,-2.409 1.105,-7.219 1.107,-10.688 0.004,-7.256 2.229,-11.895 7.011,-14.615 3.606,-2.053 3.828,-3.942 0.559,-4.763 -3.812,-0.957 -5.955,-3.849 -4.654,-6.28 1.652,-3.086 1.357,-3.79 -2.321,-5.535 -4.924,-2.337 -7.432,-2.004 -10.619,1.407 m 127.02,27.267 c -5.426,2.68 -24.642,17.003 -35,26.088 -4.125,3.619 -10.488,8.163 -14.141,10.099 -4.827,2.558 -6.815,4.215 -7.28,6.068 -1.285,5.119 1.088,5.727 6.911,1.77 l 3.955,-2.687 -2.746,-1.123 c -3.615,-1.477 -2.404,-2.503 2.956,-2.503 3.885,0 4.297,-0.227 4.083,-2.25 -0.174,-1.646 0.299,-2.267 1.762,-2.314 2.112,-0.068 8.5,-5.523 8.5,-7.258 0,-0.56 1.462,-1.331 3.25,-1.713 3.467,-0.74 8.582,-4.129 20.357,-13.486 4.034,-3.206 8.941,-6.409 10.905,-7.12 2.65,-0.958 3.495,-1.795 3.279,-3.246 -0.414,-2.785 -1.685,-2.846 -6.791,-0.325 m 11,0.521 c 0,0.995 0.563,2.503 1.25,3.351 1.497,1.847 10.86,7.063 11.511,6.412 0.7,-0.7 -3.416,-6.104 -6.85,-8.993 -3.585,-3.017 -5.911,-3.32 -5.911,-0.77 m 14,8.097 c 0,2.042 0.677,3.386 2.086,4.14 2.884,1.543 3.336,0.67 1.495,-2.89 -2.241,-4.333 -3.581,-4.801 -3.581,-1.25 m 6,2.071 c 0,2.582 4.289,5.383 6.95,4.539 2.848,-0.904 1.116,-3.949 -3.078,-5.411 -4.043,-1.409 -3.872,-1.448 -3.872,0.872 m -282.615,1.788 c -2.137,1.408 -2.468,5.141 -0.926,10.447 0.855,2.939 1.47,8.363 1.369,12.053 -0.197,7.144 0.21,8.318 2.571,7.412 3.494,-1.341 4.609,-4.937 3.556,-11.474 -0.814,-5.054 -0.716,-6.764 0.522,-9.159 1.829,-3.537 1.963,-7.204 0.323,-8.844 -1.327,-1.327 -5.674,-1.582 -7.415,-0.435 m 293.615,0.652 c 0,0.871 0.712,1.583 1.583,1.583 0.871,0 1.406,-0.534 1.188,-1.187 -0.618,-1.855 -2.771,-2.162 -2.771,-0.396 m -162.5,7.146 c -5.662,2.927 -5.799,3.349 -3.747,11.526 1.655,6.594 2.139,7.444 4.389,7.712 3.907,0.464 5.504,-2.125 3.954,-6.412 -1.14,-3.152 -1.016,-3.944 1.323,-8.416 1.419,-2.715 2.581,-5.169 2.581,-5.455 0,-1.118 -5.661,-0.422 -8.5,1.045 m 186.506,14.187 c 0.008,0.952 6.112,4.466 6.713,3.865 0.751,-0.752 -3.618,-4.615 -5.219,-4.615 -0.825,0 -1.497,0.337 -1.494,0.75 m -187.756,7.853 c -0.687,0.31 -1.25,1.201 -1.25,1.98 0,0.78 -0.9,1.417 -2,1.417 -1.829,0 -1.999,0.662 -1.986,7.75 l 0.014,7.75 4.945,-5.608 c 4.878,-5.533 8.248,-7.249 15.949,-8.118 3.893,-0.44 3.552,-2.544 -0.61,-3.755 -4.685,-1.363 -13.369,-2.179 -15.062,-1.416 m -6.369,42.212 c -3.261,2.913 -3.275,2.966 -2.135,7.905 0.631,2.734 0.893,5.943 0.583,7.131 -0.726,2.776 1.165,5.008 6.171,7.286 4.754,2.162 11.5,2.487 11.5,0.553 0,-0.72 -2.068,-3.733 -4.597,-6.695 -4.327,-5.069 -4.553,-5.623 -3.858,-9.44 1.425,-7.826 1.206,-9.026 -1.714,-9.364 -1.832,-0.211 -3.697,0.611 -5.95,2.624 m -2.681,42.385 c -1.639,1.639 -1.508,6.303 0.273,9.747 1.475,2.853 8.575,7.053 11.922,7.053 1.867,0 1.809,-1.138 -0.528,-10.296 -1.43,-5.603 -8.581,-9.59 -11.667,-6.504 m 2.856,3.359 c 1.359,1.447 2.567,2.072 2.779,1.437 0.205,-0.617 -0.461,-1.755 -1.481,-2.528 -3.065,-2.322 -3.87,-1.646 -1.298,1.091 m -5.715,28.994 c -0.361,0.941 -0.089,2.621 0.605,3.732 1.051,1.683 1,2.165 -0.301,2.894 -1.625,0.909 -1.191,3.722 0.776,5.031 0.586,0.39 0.93,2.008 0.763,3.596 -0.339,3.232 2.164,5.472 7.331,6.561 5.508,1.161 5.949,-0.173 3.072,-9.281 -1.423,-4.504 -2.587,-8.786 -2.587,-9.515 0,-1.855 -1.948,-3.222 -5.751,-4.035 -2.562,-0.548 -3.39,-0.333 -3.908,1.017 m 5.326,40.114 c -1.218,1.218 -0.689,3.333 0.833,3.333 0.825,0 1.5,0.45 1.5,1 0,0.55 -0.93,1 -2.067,1 -1.669,0 -1.943,0.434 -1.422,2.25 1.209,4.211 6.052,10.244 9.832,12.25 3.728,1.978 3.786,1.978 5.213,0.059 0.794,-1.068 1.444,-4.017 1.444,-6.554 0,-3.913 -0.493,-5.075 -3.25,-7.658 -6.023,-5.643 -10.171,-7.593 -12.083,-5.68 m -0.917,38.438 c -2.575,1.463 -2.286,7.044 0.5,9.659 3.531,3.314 10.946,6.318 12.471,5.052 1.694,-1.405 1.626,-6.245 -0.136,-9.651 -2.161,-4.18 -9.377,-7.024 -12.835,-5.06 m -4.433,32.51 c -0.613,1.599 4.504,22.814 7.569,31.385 l 1.968,5.5 0.073,-3.72 c 0.057,-2.906 0.713,-4.193 2.998,-5.883 l 2.926,-2.163 -2.654,-4.753 -2.654,-4.754 1.896,-7.613 c 1.042,-4.187 1.708,-7.777 1.478,-7.978 -0.229,-0.201 -3.259,-0.611 -6.732,-0.912 -4.939,-0.427 -6.436,-0.233 -6.868,0.891"
     stroke="none"
     fill="white"
     fill-rule="evenodd"
     id="path2" />
</svg>
